<svg width="80" height="80" viewBox="0 0 80 80" fill="none" xmlns="http://www.w3.org/2000/svg">
<path d="M54.9443 0H25.0557C11.2178 0 0 11.2178 0 25.0557V54.9443C0 68.7822 11.2178 80 25.0557 80H54.9443C68.7822 80 80 68.7822 80 54.9443V25.0557C80 11.2178 68.7822 0 54.9443 0Z" fill="url(#paint0_linear)"/>
<path d="M25.7946 5.00006H54.2052C65.6898 5.00006 74.9999 14.3102 74.9999 25.7949V54.2054C74.9999 65.6901 65.6898 75.0002 54.2052 75.0002H25.7946C14.31 75.0002 4.99981 65.69 4.99981 54.2054V25.7948C4.99981 14.3102 14.31 5.00006 25.7946 5.00006Z" stroke="#E08026" stroke-width="2.25793" stroke-miterlimit="10"/>
<path d="M43.8734 52.1121C43.8734 52.7413 43.7676 53.2911 43.5559 53.7616C43.3442 54.2291 43.0443 54.5863 42.6562 54.8333C42.2681 55.0803 41.8153 55.2037 41.2978 55.2037C40.7921 55.2037 40.3437 55.0803 39.9527 54.8333C39.5616 54.5834 39.2573 54.2291 39.0398 53.7704C38.8251 53.3088 38.7149 52.7751 38.709 52.1695V51.7064C38.709 51.0889 38.8163 50.5435 39.0309 50.0702C39.2456 49.5968 39.5484 49.2352 39.9395 48.9852C40.3334 48.7324 40.7833 48.606 41.289 48.606C41.8035 48.606 42.2563 48.7309 42.6474 48.9808C43.0414 49.2278 43.3442 49.588 43.5559 50.0614C43.7676 50.5318 43.8734 51.0801 43.8734 51.7064V52.1121ZM43.0311 51.6976C43.0311 50.9361 42.8782 50.3524 42.5724 49.9467C42.2666 49.538 41.8388 49.3337 41.289 49.3337C40.7539 49.3337 40.332 49.538 40.0232 49.9467C39.7175 50.3524 39.5602 50.9169 39.5513 51.6402V52.1121C39.5513 52.8501 39.7057 53.4308 40.0144 53.8542C40.3261 54.2746 40.7539 54.4849 41.2978 54.4849C41.8447 54.4849 42.2681 54.2864 42.568 53.8895C42.8679 53.4896 43.0222 52.9177 43.0311 52.1739V51.6976Z" fill="#BCBEC0"/>
<path d="M47.3223 51.0757C47.1988 51.0551 47.065 51.0448 46.9209 51.0448C46.3858 51.0448 46.0227 51.2727 45.8316 51.7284V55.1155H45.0157V50.3436H45.8095L45.8228 50.8949C46.0903 50.4686 46.4696 50.2554 46.9606 50.2554C47.1194 50.2554 47.2399 50.276 47.3223 50.3171V51.0757Z" fill="#BCBEC0"/>
<path d="M50.8461 55.1155C50.799 55.0215 50.7608 54.8539 50.7314 54.6128C50.3521 55.0068 49.8993 55.2037 49.373 55.2037C48.9026 55.2037 48.516 55.0714 48.2131 54.8068C47.9132 54.5393 47.7633 54.2011 47.7633 53.7925C47.7633 53.2956 47.9515 52.9104 48.3278 52.637C48.7071 52.3606 49.2393 52.2224 49.9243 52.2224H50.7182V51.8475C50.7182 51.5623 50.6329 51.3359 50.4624 51.1683C50.2919 50.9978 50.0405 50.9125 49.7082 50.9125C49.4171 50.9125 49.1731 50.986 48.9761 51.1331C48.7791 51.2801 48.6806 51.4579 48.6806 51.6667H47.8603C47.8603 51.4285 47.9441 51.1992 48.1117 50.9787C48.2822 50.7552 48.5116 50.5788 48.7997 50.4495C49.0908 50.3201 49.4098 50.2554 49.7567 50.2554C50.3066 50.2554 50.7373 50.3936 51.049 50.67C51.3606 50.9434 51.5223 51.3212 51.5341 51.8034V53.9997C51.5341 54.4378 51.5899 54.7862 51.7017 55.045V55.1155H50.8461ZM49.4921 54.4937C49.7479 54.4937 49.9905 54.4275 50.2198 54.2952C50.4492 54.1629 50.6153 53.9909 50.7182 53.7792V52.8001H50.0787C49.079 52.8001 48.5792 53.0927 48.5792 53.6778C48.5792 53.9336 48.6645 54.1335 48.835 54.2776C49.0055 54.4217 49.2246 54.4937 49.4921 54.4937Z" fill="#BCBEC0"/>
<path d="M53.5849 50.3436L53.6113 50.9434C53.9759 50.4847 54.4522 50.2554 55.0403 50.2554C56.0487 50.2554 56.5574 50.8243 56.5662 51.9622V55.1155H55.7503V51.9578C55.7474 51.6138 55.668 51.3594 55.5122 51.1948C55.3593 51.0301 55.1196 50.9478 54.7933 50.9478C54.5287 50.9478 54.2964 51.0184 54.0965 51.1595C53.8965 51.3006 53.7407 51.4859 53.629 51.7152V55.1155H52.8131V50.3436H53.5849Z" fill="#BCBEC0"/>
<path d="M57.6026 52.6899C57.6026 51.946 57.7746 51.355 58.1186 50.9169C58.4626 50.4759 58.9184 50.2554 59.4858 50.2554C60.068 50.2554 60.5222 50.4612 60.8486 50.8728L60.8883 50.3436H61.6336V55.0009C61.6336 55.6183 61.4499 56.1049 61.0823 56.4607C60.7178 56.8164 60.2267 56.9943 59.6093 56.9943C59.2653 56.9943 58.9287 56.9208 58.5994 56.7738C58.2701 56.6268 58.0187 56.4254 57.8452 56.1696L58.2686 55.6801C58.6185 56.1123 59.0463 56.3284 59.552 56.3284C59.9489 56.3284 60.2576 56.2166 60.4781 55.9932C60.7016 55.7697 60.8133 55.4551 60.8133 55.0494V54.6392C60.487 55.0156 60.0415 55.2037 59.477 55.2037C58.9184 55.2037 58.4656 54.9788 58.1186 54.529C57.7746 54.0791 57.6026 53.4661 57.6026 52.6899ZM58.4229 52.7825C58.4229 53.3206 58.5332 53.7439 58.7537 54.0527C58.9742 54.3584 59.2829 54.5113 59.6799 54.5113C60.1944 54.5113 60.5722 54.2776 60.8133 53.8101V51.6314C60.5634 51.1757 60.1885 50.9478 59.6887 50.9478C59.2918 50.9478 58.9816 51.1022 58.7581 51.4109C58.5347 51.7196 58.4229 52.1768 58.4229 52.7825Z" fill="#BCBEC0"/>
<path d="M64.8487 55.2037C64.2019 55.2037 63.6756 54.992 63.2698 54.5687C62.8641 54.1423 62.6612 53.5734 62.6612 52.8619V52.7119C62.6612 52.2386 62.7509 51.8166 62.9303 51.4462C63.1125 51.0728 63.3654 50.7817 63.6888 50.5729C64.0152 50.3613 64.368 50.2554 64.7473 50.2554C65.3677 50.2554 65.8499 50.4597 66.1939 50.8684C66.5379 51.2771 66.7099 51.8622 66.7099 52.6237V52.9633H63.4771C63.4889 53.4337 63.6256 53.8145 63.8873 54.1056C64.1519 54.3937 64.4871 54.5378 64.8928 54.5378C65.181 54.5378 65.425 54.479 65.6249 54.3614C65.8249 54.2438 65.9998 54.0879 66.1498 53.8939L66.6481 54.282C66.2483 54.8965 65.6485 55.2037 64.8487 55.2037ZM64.7473 50.9258C64.418 50.9258 64.1416 51.0463 63.9182 51.2874C63.6947 51.5256 63.5565 51.8607 63.5036 52.293H65.894V52.2312C65.8704 51.8166 65.7587 51.4962 65.5588 51.2698C65.3588 51.0404 65.0883 50.9258 64.7473 50.9258Z" fill="#BCBEC0"/>
<path d="M36.4499 49.9097H12.9028V54.8255H36.4499V49.9097Z" fill="#E08026"/>
<path d="M48.4263 32.5801C46.7441 32.5801 45.2967 32.5891 43.8515 32.5665C43.707 32.5643 43.497 32.413 43.4293 32.2775C42.5305 30.4124 40.5344 29.613 38.5383 29.972C36.9441 30.2588 35.6005 31.7198 35.2822 33.594C34.9773 35.3824 35.0451 37.1324 36.1718 38.6746C37.9218 41.0727 41.948 40.7611 43.3096 38.1124C43.5038 37.733 43.7138 37.5975 44.1428 37.6088C45.4976 37.6404 46.8525 37.6201 48.2164 37.6201C47.6834 40.9078 44.9241 43.6853 41.6883 44.2249C39.8096 44.5388 37.9534 44.5162 36.1402 43.8411C33.5412 42.8746 31.8951 41.0185 31.107 38.4036C30.2986 35.7233 30.3957 33.0565 31.6105 30.5162C33.0196 27.5672 35.4651 26.0588 38.6851 25.8262C42.0947 25.5801 45.028 26.5465 46.9925 29.5227C47.5751 30.4033 47.907 31.4488 48.4263 32.5801Z" fill="#BCBEC0"/>
<path d="M52.3701 38.7965C53.9597 38.7965 55.5065 38.7965 57.0872 38.7965C57.2339 39.7675 57.6472 40.5284 58.6227 40.8604C59.6388 41.2036 60.7385 40.8355 61.0862 40.0294C61.4949 39.081 61.163 38.1055 60.0972 37.611C58.7514 36.9855 57.3446 36.4933 55.9649 35.9355C54.741 35.441 53.6301 34.7884 52.9639 33.5939C51.6339 31.2094 52.1985 27.5604 55.5133 26.2823C57.7352 25.4265 59.9956 25.4604 62.2175 26.3252C64.1685 27.0839 65.4939 28.9536 65.6249 31.1326C64.8368 31.1326 64.0488 31.1326 63.263 31.1326C62.4862 31.1326 61.7094 31.1326 60.9191 31.1326C60.813 30.8323 60.7362 30.5433 60.612 30.2768C60.1626 29.3217 59.011 28.8881 58.0356 29.2923C56.8975 29.7665 56.6243 31.1891 57.6291 31.9681C58.3268 32.5078 59.203 32.8307 60.0249 33.1965C61.0862 33.6684 62.2062 34.0162 63.2426 34.5378C65.1191 35.4794 66.0314 37.0804 65.9862 39.1623C65.941 41.2081 64.9723 42.7346 63.141 43.6852C60.6368 44.9859 56.0936 44.6675 53.9372 42.4117C52.9662 41.3955 52.501 40.201 52.3701 38.7965Z" fill="#BCBEC0"/>
<path d="M17.2925 37.7577C17.2925 40.0225 17.2925 42.0932 17.2925 44.2112C15.8248 44.2112 14.3886 44.2112 12.9028 44.2112C12.9028 38.1799 12.9028 32.117 12.9028 26.0338C12.9141 26.0248 12.9457 25.9751 12.9796 25.9751C15.7457 25.9999 18.5164 25.948 21.278 26.0812C24.0351 26.2145 25.9951 27.8561 26.5415 30.4416C27.3815 34.4135 25.0444 37.4709 21.1786 37.7441C19.9119 37.8322 18.6338 37.7577 17.2925 37.7577ZM17.3173 29.5067C17.3173 31.1551 17.3173 32.6996 17.3173 34.2215C18.3764 34.2215 19.4377 34.3164 20.4719 34.1967C21.5783 34.068 22.1632 33.2235 22.1948 32.038C22.2286 30.7396 21.7183 29.8974 20.5509 29.7032C19.5032 29.5248 18.4193 29.5632 17.3173 29.5067Z" fill="#BCBEC0"/>
<defs>
<linearGradient id="paint0_linear" x1="52.5581" y1="66.9767" x2="40" y2="6.97675" gradientUnits="userSpaceOnUse">
<stop stop-color="#222322"/>
<stop offset="1" stop-color="#454745"/>
</linearGradient>
</defs>
</svg>
